<svg xmlns="http://www.w3.org/2000/svg" xmlns:xlink="http://www.w3.org/1999/xlink" width="2000" zoomAndPan="magnify" viewBox="0 0 1500 1499.999933" height="2000" preserveAspectRatio="xMidYMid meet" version="1.0"><defs><g/><clipPath id="babd15e402"><rect x="0" width="1204" y="0" height="577"/></clipPath></defs><g transform="matrix(1, 0, 0, 1, 150, 518)"><g clip-path="url(#babd15e402)"><g fill="#ffffff" fill-opacity="1"><g transform="translate(0.00002043, 413.373268)"><g><path d="M 252.203125 -404.21875 C 272.929688 -404.21875 291.066406 -402.296875 306.609375 -398.453125 C 322.160156 -394.617188 337.804688 -389.628906 353.546875 -383.484375 C 364.679688 -379.265625 371.398438 -377.15625 373.703125 -377.15625 C 378.304688 -377.15625 382.335938 -379.457031 385.796875 -384.0625 C 389.253906 -388.675781 391.363281 -395.394531 392.125 -404.21875 L 403.0625 -404.21875 L 413.4375 -278.125 L 403.0625 -278.125 C 397.6875 -300 387.320312 -318.804688 371.96875 -334.546875 C 356.613281 -350.285156 338.765625 -362.1875 318.421875 -370.25 C 298.078125 -378.3125 277.347656 -382.34375 256.234375 -382.34375 C 227.441406 -382.34375 200.953125 -375.144531 176.765625 -360.75 C 152.585938 -346.351562 133.203125 -325.238281 118.609375 -297.40625 C 104.023438 -269.570312 96.734375 -236.269531 96.734375 -197.5 C 96.734375 -161.800781 104.3125 -129.941406 119.46875 -101.921875 C 134.632812 -73.898438 155.171875 -52.113281 181.078125 -36.5625 C 206.992188 -21.019531 235.117188 -13.25 265.453125 -13.25 C 281.578125 -13.25 296.546875 -15.453125 310.359375 -19.859375 C 324.179688 -24.273438 338.769531 -31.664062 354.125 -42.03125 L 354.125 -156.046875 C 354.125 -172.929688 349.707031 -184.734375 340.875 -191.453125 C 332.050781 -198.171875 318.039062 -201.722656 298.84375 -202.109375 L 298.84375 -212.46875 L 468.71875 -212.46875 L 468.71875 -202.109375 C 454.507812 -200.953125 443.851562 -198.835938 436.75 -195.765625 C 429.644531 -192.703125 424.460938 -187.332031 421.203125 -179.65625 C 417.941406 -171.976562 416.3125 -160.460938 416.3125 -145.109375 L 416.3125 -32.828125 C 388.289062 -17.460938 363.335938 -6.707031 341.453125 -0.5625 C 319.578125 5.570312 292.707031 8.640625 260.84375 8.640625 C 210.9375 8.640625 168.132812 -0.953125 132.4375 -20.140625 C 96.738281 -39.335938 69.867188 -63.8125 51.828125 -93.5625 C 33.785156 -123.3125 24.765625 -153.925781 24.765625 -185.40625 C 24.765625 -225.332031 34.835938 -261.992188 54.984375 -295.390625 C 75.140625 -328.785156 102.585938 -355.269531 137.328125 -374.84375 C 172.066406 -394.425781 210.359375 -404.21875 252.203125 -404.21875 Z M 252.203125 -404.21875 "/></g></g></g><g fill="#ffffff" fill-opacity="1"><g transform="translate(473.892767, 413.373268)"><g><path d="M 240.109375 -385.21875 C 220.148438 -385.21875 205.851562 -381.953125 197.21875 -375.421875 C 188.582031 -368.898438 184.265625 -356.425781 184.265625 -338 L 184.265625 -119.1875 C 184.265625 -83.488281 175.429688 -53.257812 157.765625 -28.5 C 140.109375 -3.738281 113.625 8.640625 78.3125 8.640625 C 59.113281 8.640625 43.375 4.511719 31.09375 -3.734375 C 18.8125 -11.992188 12.671875 -22.265625 12.671875 -34.546875 C 12.671875 -42.992188 15.453125 -50 21.015625 -55.5625 C 26.578125 -61.132812 33.390625 -63.921875 41.453125 -63.921875 C 49.898438 -63.921875 56.425781 -61.519531 61.03125 -56.71875 C 65.644531 -51.914062 70.828125 -44.71875 76.578125 -35.125 C 80.421875 -27.445312 84.164062 -21.6875 87.8125 -17.84375 C 91.457031 -14.007812 95.96875 -12.09375 101.34375 -12.09375 C 107.863281 -12.09375 112.945312 -15.929688 116.59375 -23.609375 C 120.25 -31.285156 122.078125 -46.253906 122.078125 -68.515625 L 122.078125 -338.578125 C 122.078125 -356.617188 117.375 -368.898438 107.96875 -375.421875 C 98.5625 -381.953125 83.6875 -385.21875 63.34375 -385.21875 L 63.34375 -395.578125 L 240.109375 -395.578125 Z M 240.109375 -385.21875 "/></g></g></g><g fill="#ffffff" fill-opacity="1"><g transform="translate(726.098187, 413.373268)"><g><path d="M 252.203125 -404.21875 C 272.929688 -404.21875 291.066406 -402.296875 306.609375 -398.453125 C 322.160156 -394.617188 337.804688 -389.628906 353.546875 -383.484375 C 364.679688 -379.265625 371.398438 -377.15625 373.703125 -377.15625 C 378.304688 -377.15625 382.335938 -379.457031 385.796875 -384.0625 C 389.253906 -388.675781 391.363281 -395.394531 392.125 -404.21875 L 403.0625 -404.21875 L 413.4375 -278.125 L 403.0625 -278.125 C 397.6875 -300 387.320312 -318.804688 371.96875 -334.546875 C 356.613281 -350.285156 338.765625 -362.1875 318.421875 -370.25 C 298.078125 -378.3125 277.347656 -382.34375 256.234375 -382.34375 C 227.441406 -382.34375 200.953125 -375.144531 176.765625 -360.75 C 152.585938 -346.351562 133.203125 -325.238281 118.609375 -297.40625 C 104.023438 -269.570312 96.734375 -236.269531 96.734375 -197.5 C 96.734375 -161.800781 104.3125 -129.941406 119.46875 -101.921875 C 134.632812 -73.898438 155.171875 -52.113281 181.078125 -36.5625 C 206.992188 -21.019531 235.117188 -13.25 265.453125 -13.25 C 281.578125 -13.25 296.546875 -15.453125 310.359375 -19.859375 C 324.179688 -24.273438 338.769531 -31.664062 354.125 -42.03125 L 354.125 -156.046875 C 354.125 -172.929688 349.707031 -184.734375 340.875 -191.453125 C 332.050781 -198.171875 318.039062 -201.722656 298.84375 -202.109375 L 298.84375 -212.46875 L 468.71875 -212.46875 L 468.71875 -202.109375 C 454.507812 -200.953125 443.851562 -198.835938 436.75 -195.765625 C 429.644531 -192.703125 424.460938 -187.332031 421.203125 -179.65625 C 417.941406 -171.976562 416.3125 -160.460938 416.3125 -145.109375 L 416.3125 -32.828125 C 388.289062 -17.460938 363.335938 -6.707031 341.453125 -0.5625 C 319.578125 5.570312 292.707031 8.640625 260.84375 8.640625 C 210.9375 8.640625 168.132812 -0.953125 132.4375 -20.140625 C 96.738281 -39.335938 69.867188 -63.8125 51.828125 -93.5625 C 33.785156 -123.3125 24.765625 -153.925781 24.765625 -185.40625 C 24.765625 -225.332031 34.835938 -261.992188 54.984375 -295.390625 C 75.140625 -328.785156 102.585938 -355.269531 137.328125 -374.84375 C 172.066406 -394.425781 210.359375 -404.21875 252.203125 -404.21875 Z M 252.203125 -404.21875 "/></g></g></g></g></g></svg>